<svg width="112" height="50" viewBox="0 0 112 50" fill="none" xmlns="http://www.w3.org/2000/svg">
<mask id="path-1-outside-1_263_299" maskUnits="userSpaceOnUse" x="2" y="11" width="49" height="30" fill="black">
<rect fill="white" x="2" y="11" width="49" height="30"/>
<path d="M6.17464 40V36.0164H14.1818C15.5893 36.0164 16.6782 35.5782 17.4483 34.7018C18.2185 33.8254 18.6036 32.8162 18.6036 31.6742C18.6036 30.904 18.431 30.187 18.0857 29.523C17.7405 28.8591 17.2359 28.3279 16.5719 27.9296C15.908 27.5312 15.1113 27.332 14.1818 27.332H6.17464V23.3484H13.5045C14.6996 23.3484 15.6557 23.043 16.3728 22.4321C17.0898 21.8213 17.4483 20.9184 17.4483 19.7233C17.4483 18.5282 17.0898 17.6252 16.3728 17.0144C15.6557 16.4036 14.6996 16.0982 13.5045 16.0982H6.17464V12.1145H13.6241C15.5096 12.1145 17.0765 12.4598 18.3247 13.1503C19.573 13.8408 20.5025 14.7304 21.1133 15.8193C21.7241 16.9082 22.0295 18.0767 22.0295 19.3249C22.0295 20.7856 21.6179 22.0736 20.7946 23.189C19.9979 24.3045 18.8161 25.2074 17.2492 25.8979L17.6077 24.4638C19.3605 25.1809 20.7282 26.19 21.7108 27.4914C22.6935 28.7927 23.1848 30.3198 23.1848 32.0726C23.1848 33.5067 22.8263 34.8213 22.1092 36.0164C21.4187 37.2115 20.383 38.1808 19.002 38.9244C17.6475 39.6415 15.9744 40 13.9826 40H6.17464ZM3.02757 40V12.1145H7.60875V40H3.02757ZM35.249 28.8458L24.3737 12.1145H29.6719L38.1571 25.4597H35.6872L44.1723 12.1145H49.3909L38.4359 28.8458H35.249ZM34.6116 40V25.9776H39.1928V40H34.6116Z"/>
</mask>
<path d="M6.17464 40V36.0164H14.1818C15.5893 36.0164 16.6782 35.5782 17.4483 34.7018C18.2185 33.8254 18.6036 32.8162 18.6036 31.6742C18.6036 30.904 18.431 30.187 18.0857 29.523C17.7405 28.8591 17.2359 28.3279 16.5719 27.9296C15.908 27.5312 15.1113 27.332 14.1818 27.332H6.17464V23.3484H13.5045C14.6996 23.3484 15.6557 23.043 16.3728 22.4321C17.0898 21.8213 17.4483 20.9184 17.4483 19.7233C17.4483 18.5282 17.0898 17.6252 16.3728 17.0144C15.6557 16.4036 14.6996 16.0982 13.5045 16.0982H6.17464V12.1145H13.6241C15.5096 12.1145 17.0765 12.4598 18.3247 13.1503C19.573 13.8408 20.5025 14.7304 21.1133 15.8193C21.7241 16.9082 22.0295 18.0767 22.0295 19.3249C22.0295 20.7856 21.6179 22.0736 20.7946 23.189C19.9979 24.3045 18.8161 25.2074 17.2492 25.8979L17.6077 24.4638C19.3605 25.1809 20.7282 26.19 21.7108 27.4914C22.6935 28.7927 23.1848 30.3198 23.1848 32.0726C23.1848 33.5067 22.8263 34.8213 22.1092 36.0164C21.4187 37.2115 20.383 38.1808 19.002 38.9244C17.6475 39.6415 15.9744 40 13.9826 40H6.17464ZM3.02757 40V12.1145H7.60875V40H3.02757ZM35.249 28.8458L24.3737 12.1145H29.6719L38.1571 25.4597H35.6872L44.1723 12.1145H49.3909L38.4359 28.8458H35.249ZM34.6116 40V25.9776H39.1928V40H34.6116Z" fill="#DCDCDC"/>
<path d="M6.17464 40H5.57464V40.6H6.17464V40ZM6.17464 36.0164V35.4164H5.57464V36.0164H6.17464ZM17.4483 34.7018L17.899 35.0978L17.899 35.0978L17.4483 34.7018ZM18.0857 29.523L18.6181 29.2462L18.6181 29.2462L18.0857 29.523ZM16.5719 27.9296L16.2632 28.4441L16.2632 28.4441L16.5719 27.9296ZM6.17464 27.332H5.57464V27.932H6.17464V27.332ZM6.17464 23.3484V22.7484H5.57464V23.3484H6.17464ZM6.17464 16.0982H5.57464V16.6982H6.17464V16.0982ZM6.17464 12.1145V11.5145H5.57464V12.1145H6.17464ZM18.3247 13.1503L18.0343 13.6753L18.0343 13.6753L18.3247 13.1503ZM21.1133 15.8193L21.6366 15.5258L21.6366 15.5258L21.1133 15.8193ZM20.7946 23.189L20.3118 22.8327L20.3064 22.8403L20.7946 23.189ZM17.2492 25.8979L16.6671 25.7524L16.3699 26.9411L17.4911 26.447L17.2492 25.8979ZM17.6077 24.4638L17.8349 23.9085L17.1936 23.6462L17.0256 24.3183L17.6077 24.4638ZM22.1092 36.0164L21.5946 35.7076L21.5897 35.7162L22.1092 36.0164ZM19.002 38.9244L19.2827 39.4547L19.2864 39.4527L19.002 38.9244ZM3.02757 40H2.42757V40.6H3.02757V40ZM3.02757 12.1145V11.5145H2.42757V12.1145H3.02757ZM7.60875 12.1145H8.20875V11.5145H7.60875V12.1145ZM7.60875 40V40.6H8.20875V40H7.60875ZM6.17464 40H6.77464V36.0164H6.17464H5.57464V40H6.17464ZM6.17464 36.0164V36.6164H14.1818V36.0164V35.4164H6.17464V36.0164ZM14.1818 36.0164V36.6164C15.723 36.6164 16.9916 36.1304 17.899 35.0978L17.4483 34.7018L16.9976 34.3057C16.3648 35.0259 15.4556 35.4164 14.1818 35.4164V36.0164ZM17.4483 34.7018L17.899 35.0978C18.7632 34.1145 19.2036 32.9654 19.2036 31.6742H18.6036H18.0036C18.0036 32.667 17.6739 33.5362 16.9976 34.3057L17.4483 34.7018ZM18.6036 31.6742H19.2036C19.2036 30.8106 19.0091 29.9982 18.6181 29.2462L18.0857 29.523L17.5534 29.7998C17.8529 30.3757 18.0036 30.9975 18.0036 31.6742H18.6036ZM18.0857 29.523L18.6181 29.2462C18.2198 28.4804 17.6362 27.8684 16.8806 27.4151L16.5719 27.9296L16.2632 28.4441C16.8356 28.7875 17.2611 29.2378 17.5534 29.7998L18.0857 29.523ZM16.5719 27.9296L16.8806 27.4151C16.1063 26.9505 15.1981 26.732 14.1818 26.732V27.332V27.932C15.0244 27.932 15.7097 28.1119 16.2632 28.4441L16.5719 27.9296ZM14.1818 27.332V26.732H6.17464V27.332V27.932H14.1818V27.332ZM6.17464 27.332H6.77464V23.3484H6.17464H5.57464V27.332H6.17464ZM6.17464 23.3484V23.9484H13.5045V23.3484V22.7484H6.17464V23.3484ZM13.5045 23.3484V23.9484C14.8029 23.9484 15.9096 23.6148 16.7618 22.8889L16.3728 22.4321L15.9837 21.9754C15.4018 22.4711 14.5964 22.7484 13.5045 22.7484V23.3484ZM16.3728 22.4321L16.7618 22.8889C17.6472 22.1347 18.0483 21.0432 18.0483 19.7233H17.4483H16.8483C16.8483 20.7935 16.5324 21.5079 15.9837 21.9754L16.3728 22.4321ZM17.4483 19.7233H18.0483C18.0483 18.4034 17.6472 17.3118 16.7618 16.5576L16.3728 17.0144L15.9837 17.4711C16.5324 17.9386 16.8483 18.653 16.8483 19.7233H17.4483ZM16.3728 17.0144L16.7618 16.5576C15.9096 15.8317 14.8029 15.4982 13.5045 15.4982V16.0982V16.6982C14.5964 16.6982 15.4018 16.9754 15.9837 17.4711L16.3728 17.0144ZM13.5045 16.0982V15.4982H6.17464V16.0982V16.6982H13.5045V16.0982ZM6.17464 16.0982H6.77464V12.1145H6.17464H5.57464V16.0982H6.17464ZM6.17464 12.1145V12.7145H13.6241V12.1145V11.5145H6.17464V12.1145ZM13.6241 12.1145V12.7145C15.4396 12.7145 16.8991 13.0473 18.0343 13.6753L18.3247 13.1503L18.6152 12.6252C17.254 11.8723 15.5796 11.5145 13.6241 11.5145V12.1145ZM18.3247 13.1503L18.0343 13.6753C19.1991 14.3196 20.0412 15.1346 20.59 16.1129L21.1133 15.8193L21.6366 15.5258C20.9637 14.3263 19.9468 13.3619 18.6152 12.6252L18.3247 13.1503ZM21.1133 15.8193L20.59 16.1129C21.1505 17.1121 21.4295 18.1795 21.4295 19.3249H22.0295H22.6295C22.6295 17.9739 22.2977 16.7043 21.6366 15.5258L21.1133 15.8193ZM22.0295 19.3249H21.4295C21.4295 20.6647 21.0547 21.8262 20.3119 22.8327L20.7946 23.189L21.2773 23.5453C22.181 22.321 22.6295 20.9065 22.6295 19.3249H22.0295ZM20.7946 23.189L20.3064 22.8403C19.5861 23.8487 18.4999 24.6911 17.0072 25.3489L17.2492 25.8979L17.4911 26.447C19.1323 25.7237 20.4097 24.7602 21.2828 23.5378L20.7946 23.189ZM17.2492 25.8979L17.8312 26.0434L18.1898 24.6093L17.6077 24.4638L17.0256 24.3183L16.6671 25.7524L17.2492 25.8979ZM17.6077 24.4638L17.3805 25.0191C19.0499 25.702 20.3242 26.6507 21.232 27.8529L21.7108 27.4914L22.1897 27.1298C21.1322 25.7294 19.6711 24.6597 17.8349 23.9085L17.6077 24.4638ZM21.7108 27.4914L21.232 27.8529C22.13 29.0421 22.5848 30.4399 22.5848 32.0726H23.1848H23.7848C23.7848 30.1997 23.257 28.5433 22.1897 27.1298L21.7108 27.4914ZM23.1848 32.0726H22.5848C22.5848 33.4012 22.2541 34.6086 21.5947 35.7077L22.1092 36.0164L22.6237 36.3251C23.3984 35.0339 23.7848 33.6121 23.7848 32.0726H23.1848ZM22.1092 36.0164L21.5897 35.7162C20.9622 36.8023 20.0142 37.6979 18.7175 38.3961L19.002 38.9244L19.2864 39.4527C20.7517 38.6637 21.8753 37.6206 22.6287 36.3165L22.1092 36.0164ZM19.002 38.9244L18.7212 38.3941C17.4753 39.0537 15.9049 39.4 13.9826 39.4V40V40.6C16.0439 40.6 17.8197 40.2292 19.2827 39.4547L19.002 38.9244ZM13.9826 40V39.4H6.17464V40V40.6H13.9826V40ZM3.02757 40H3.62757V12.1145H3.02757H2.42757V40H3.02757ZM3.02757 12.1145V12.7145H7.60875V12.1145V11.5145H3.02757V12.1145ZM7.60875 12.1145H7.00875V40H7.60875H8.20875V12.1145H7.60875ZM7.60875 40V39.4H3.02757V40V40.6H7.60875V40ZM35.249 28.8458L34.7459 29.1728L34.9234 29.4458H35.249V28.8458ZM24.3737 12.1145V11.5145H23.268L23.8706 12.4415L24.3737 12.1145ZM29.6719 12.1145L30.1782 11.7926L30.0014 11.5145H29.6719V12.1145ZM38.1571 25.4597V26.0597H39.2496L38.6634 25.1378L38.1571 25.4597ZM35.6872 25.4597L35.1809 25.1378L34.5947 26.0597H35.6872V25.4597ZM44.1723 12.1145V11.5145H43.8428L43.666 11.7926L44.1723 12.1145ZM49.3909 12.1145L49.8929 12.4432L50.5009 11.5145H49.3909V12.1145ZM38.4359 28.8458V29.4458H38.7602L38.9379 29.1745L38.4359 28.8458ZM34.6116 40H34.0116V40.6H34.6116V40ZM34.6116 25.9776V25.3776H34.0116V25.9776H34.6116ZM39.1928 25.9776H39.7928V25.3776H39.1928V25.9776ZM39.1928 40V40.6H39.7928V40H39.1928ZM35.249 28.8458L35.7521 28.5188L24.8767 11.7875L24.3737 12.1145L23.8706 12.4415L34.7459 29.1728L35.249 28.8458ZM24.3737 12.1145V12.7145H29.6719V12.1145V11.5145H24.3737V12.1145ZM29.6719 12.1145L29.1656 12.4364L37.6507 25.7816L38.1571 25.4597L38.6634 25.1378L30.1782 11.7926L29.6719 12.1145ZM38.1571 25.4597V24.8597H35.6872V25.4597V26.0597H38.1571V25.4597ZM35.6872 25.4597L36.1935 25.7816L44.6787 12.4364L44.1723 12.1145L43.666 11.7926L35.1809 25.1378L35.6872 25.4597ZM44.1723 12.1145V12.7145H49.3909V12.1145V11.5145H44.1723V12.1145ZM49.3909 12.1145L48.8889 11.7858L37.9339 28.5171L38.4359 28.8458L38.9379 29.1745L49.8929 12.4432L49.3909 12.1145ZM38.4359 28.8458V28.2458H35.249V28.8458V29.4458H38.4359V28.8458ZM34.6116 40H35.2116V25.9776H34.6116H34.0116V40H34.6116ZM34.6116 25.9776V26.5776H39.1928V25.9776V25.3776H34.6116V25.9776ZM39.1928 25.9776H38.5928V40H39.1928H39.7928V25.9776H39.1928ZM39.1928 40V39.4H34.6116V40V40.6H39.1928V40Z" fill="#1C1C1E" mask="url(#path-1-outside-1_263_299)"/>
<mask id="path-3-outside-2_263_299" maskUnits="userSpaceOnUse" x="52" y="11" width="54" height="30" fill="black">
<rect fill="white" x="52" y="11" width="54" height="30"/>
<path d="M62.5965 40V13.1503H66.3411V40H62.5965ZM53.1951 15.7795V12.3535H75.7027V15.7795H53.1951ZM90.7297 40.3984C88.7644 40.3984 86.932 40.0398 85.2323 39.3228C83.5326 38.5792 82.0454 37.5567 80.7706 36.2554C79.4958 34.9275 78.4999 33.4004 77.7829 31.6742C77.0924 29.9479 76.7471 28.1022 76.7471 26.1369C76.7471 24.1451 77.0924 22.2994 77.7829 20.5997C78.4999 18.8734 79.4826 17.3596 80.7308 16.0583C82.0055 14.757 83.4795 13.7478 85.1526 13.0308C86.8523 12.3137 88.6848 11.9552 90.65 11.9552C92.6153 11.9552 94.4345 12.3137 96.1076 13.0308C97.8073 13.7478 99.2945 14.757 100.569 16.0583C101.844 17.3596 102.84 18.8734 103.557 20.5997C104.274 22.3259 104.633 24.1849 104.633 26.1768C104.633 28.142 104.274 29.9878 103.557 31.714C102.84 33.4403 101.844 34.9541 100.569 36.2554C99.3211 37.5567 97.8471 38.5792 96.1474 39.3228C94.4743 40.0398 92.6684 40.3984 90.7297 40.3984ZM90.65 36.8131C92.6418 36.8131 94.3814 36.3616 95.8686 35.4586C97.3824 34.5291 98.5775 33.2676 99.4539 31.6742C100.33 30.0542 100.768 28.2084 100.768 26.1369C100.768 24.5966 100.516 23.189 100.012 21.9143C99.507 20.6129 98.8032 19.4843 97.9003 18.5282C96.9973 17.5721 95.935 16.8418 94.7133 16.3372C93.4917 15.806 92.1373 15.5404 90.65 15.5404C88.6848 15.5404 86.9452 15.9919 85.4315 16.8949C83.9442 17.7978 82.7624 19.0461 81.886 20.6395C81.0362 22.233 80.6113 24.0654 80.6113 26.1369C80.6113 27.6773 80.8503 29.1114 81.3283 30.4393C81.8329 31.7406 82.5234 32.8693 83.3998 33.8254C84.3028 34.7549 85.3651 35.4852 86.5867 36.0164C87.8349 36.5475 89.1894 36.8131 90.65 36.8131Z"/>
</mask>
<path d="M62.5965 40V13.1503H66.3411V40H62.5965ZM53.1951 15.7795V12.3535H75.7027V15.7795H53.1951ZM90.7297 40.3984C88.7644 40.3984 86.932 40.0398 85.2323 39.3228C83.5326 38.5792 82.0454 37.5567 80.7706 36.2554C79.4958 34.9275 78.4999 33.4004 77.7829 31.6742C77.0924 29.9479 76.7471 28.1022 76.7471 26.1369C76.7471 24.1451 77.0924 22.2994 77.7829 20.5997C78.4999 18.8734 79.4826 17.3596 80.7308 16.0583C82.0055 14.757 83.4795 13.7478 85.1526 13.0308C86.8523 12.3137 88.6848 11.9552 90.65 11.9552C92.6153 11.9552 94.4345 12.3137 96.1076 13.0308C97.8073 13.7478 99.2945 14.757 100.569 16.0583C101.844 17.3596 102.84 18.8734 103.557 20.5997C104.274 22.3259 104.633 24.1849 104.633 26.1768C104.633 28.142 104.274 29.9878 103.557 31.714C102.84 33.4403 101.844 34.9541 100.569 36.2554C99.3211 37.5567 97.8471 38.5792 96.1474 39.3228C94.4743 40.0398 92.6684 40.3984 90.7297 40.3984ZM90.65 36.8131C92.6418 36.8131 94.3814 36.3616 95.8686 35.4586C97.3824 34.5291 98.5775 33.2676 99.4539 31.6742C100.33 30.0542 100.768 28.2084 100.768 26.1369C100.768 24.5966 100.516 23.189 100.012 21.9143C99.507 20.6129 98.8032 19.4843 97.9003 18.5282C96.9973 17.5721 95.935 16.8418 94.7133 16.3372C93.4917 15.806 92.1373 15.5404 90.65 15.5404C88.6848 15.5404 86.9452 15.9919 85.4315 16.8949C83.9442 17.7978 82.7624 19.0461 81.886 20.6395C81.0362 22.233 80.6113 24.0654 80.6113 26.1369C80.6113 27.6773 80.8503 29.1114 81.3283 30.4393C81.8329 31.7406 82.5234 32.8693 83.3998 33.8254C84.3028 34.7549 85.3651 35.4852 86.5867 36.0164C87.8349 36.5475 89.1894 36.8131 90.65 36.8131Z" fill="#FF6F00"/>
<path d="M62.5965 40H61.9965V40.6H62.5965V40ZM62.5965 13.1503V12.5503H61.9965V13.1503H62.5965ZM66.3411 13.1503H66.9411V12.5503H66.3411V13.1503ZM66.3411 40V40.6H66.9411V40H66.3411ZM53.1951 15.7795H52.5951V16.3795H53.1951V15.7795ZM53.1951 12.3535V11.7535H52.5951V12.3535H53.1951ZM75.7027 12.3535H76.3027V11.7535H75.7027V12.3535ZM75.7027 15.7795V16.3795H76.3027V15.7795H75.7027ZM62.5965 40H63.1965V13.1503H62.5965H61.9965V40H62.5965ZM62.5965 13.1503V13.7503H66.3411V13.1503V12.5503H62.5965V13.1503ZM66.3411 13.1503H65.7411V40H66.3411H66.9411V13.1503H66.3411ZM66.3411 40V39.4H62.5965V40V40.6H66.3411V40ZM53.1951 15.7795H53.7951V12.3535H53.1951H52.5951V15.7795H53.1951ZM53.1951 12.3535V12.9535H75.7027V12.3535V11.7535H53.1951V12.3535ZM75.7027 12.3535H75.1027V15.7795H75.7027H76.3027V12.3535H75.7027ZM75.7027 15.7795V15.1795H53.1951V15.7795V16.3795H75.7027V15.7795ZM85.2323 39.3228L84.9918 39.8725L84.9991 39.8756L85.2323 39.3228ZM80.7706 36.2554L80.3377 36.6709L80.342 36.6752L80.7706 36.2554ZM77.7829 31.6742L77.2257 31.897L77.2288 31.9044L77.7829 31.6742ZM77.7829 20.5997L77.2288 20.3695L77.227 20.3738L77.7829 20.5997ZM80.7308 16.0583L80.3021 15.6384L80.2978 15.643L80.7308 16.0583ZM85.1526 13.0308L84.9194 12.4779L84.9163 12.4793L85.1526 13.0308ZM96.1076 13.0308L95.8713 13.5822L95.8744 13.5836L96.1076 13.0308ZM100.569 16.0583L100.998 15.6385L100.569 16.0583ZM103.557 20.5997L103.003 20.8298L103.003 20.8298L103.557 20.5997ZM100.569 36.2554L100.141 35.8355L100.136 35.84L100.569 36.2554ZM96.1474 39.3228L96.3838 39.8743L96.3879 39.8725L96.1474 39.3228ZM95.8686 35.4586L96.18 35.9715L96.1826 35.97L95.8686 35.4586ZM99.4539 31.6742L99.9796 31.9633L99.9816 31.9597L99.4539 31.6742ZM100.012 21.9143L99.4522 22.1312L99.4537 22.1351L100.012 21.9143ZM97.9003 18.5282L97.464 18.9402L97.464 18.9402L97.9003 18.5282ZM94.7133 16.3372L94.4741 16.8875L94.4843 16.8917L94.7133 16.3372ZM85.4315 16.8949L85.1241 16.3796L85.1201 16.382L85.4315 16.8949ZM81.886 20.6395L81.3602 20.3503L81.3566 20.3572L81.886 20.6395ZM81.3283 30.4393L80.7638 30.6425L80.7662 30.6494L80.7689 30.6562L81.3283 30.4393ZM83.3998 33.8254L82.9575 34.2308L82.9634 34.2372L82.9694 34.2434L83.3998 33.8254ZM86.5867 36.0164L86.3475 36.5666L86.3518 36.5685L86.5867 36.0164ZM90.7297 40.3984V39.7984C88.8392 39.7984 87.0866 39.4539 85.4655 38.77L85.2323 39.3228L84.9991 39.8756C86.7773 40.6258 88.6896 40.9984 90.7297 40.9984V40.3984ZM85.2323 39.3228L85.4728 38.7731C83.8422 38.0597 82.4192 37.0809 81.1992 35.8355L80.7706 36.2554L80.342 36.6752C81.6716 38.0325 83.223 39.0986 84.9918 39.8725L85.2323 39.3228ZM80.7706 36.2554L81.2034 35.8399C79.9811 34.5665 79.0259 33.1026 78.337 31.444L77.7829 31.6742L77.2288 31.9044C77.9739 33.6983 79.0106 35.2884 80.3378 36.6709L80.7706 36.2554ZM77.7829 31.6742L78.34 31.4514C77.6794 29.8 77.3471 28.0303 77.3471 26.1369H76.7471H76.1471C76.1471 28.1741 76.5053 30.0959 77.2258 31.897L77.7829 31.6742ZM76.7471 26.1369H77.3471C77.3471 24.2159 77.6798 22.4475 78.3387 20.8255L77.7829 20.5997L77.227 20.3738C76.5049 22.1512 76.1471 24.0744 76.1471 26.1369H76.7471ZM77.7829 20.5997L78.337 20.8298C79.0265 19.1697 79.9689 17.7193 81.1638 16.4737L80.7308 16.0583L80.2978 15.643C78.9962 17 77.9733 18.5771 77.2288 20.3695L77.7829 20.5997ZM80.7308 16.0583L81.1594 16.4782C82.3793 15.2328 83.788 14.2684 85.389 13.5822L85.1526 13.0308L84.9163 12.4793C83.171 13.2272 81.6317 14.2812 80.3021 15.6385L80.7308 16.0583ZM85.1526 13.0308L85.3858 13.5836C87.007 12.8997 88.7596 12.5552 90.65 12.5552V11.9552V11.3552C88.61 11.3552 86.6976 11.7277 84.9194 12.4779L85.1526 13.0308ZM90.65 11.9552V12.5552C92.5406 12.5552 94.2786 12.8997 95.8713 13.5822L96.1076 13.0308L96.344 12.4793C94.5904 11.7277 92.69 11.3552 90.65 11.3552V11.9552ZM96.1076 13.0308L95.8744 13.5836C97.5017 14.2701 98.9223 15.2344 100.141 16.4782L100.569 16.0583L100.998 15.6385C99.6667 14.2796 98.1129 13.2255 96.3408 12.4779L96.1076 13.0308ZM100.569 16.0583L100.141 16.4782C101.36 17.7234 102.314 19.1724 103.003 20.8298L103.557 20.5997L104.111 20.3695C103.365 18.5745 102.328 16.9959 100.998 15.6385L100.569 16.0583ZM103.557 20.5997L103.003 20.8298C103.688 22.4784 104.033 24.2587 104.033 26.1768H104.633H105.233C105.233 24.1112 104.86 22.1734 104.111 20.3695L103.557 20.5997ZM104.633 26.1768H104.033C104.033 28.0672 103.688 29.8343 103.003 31.4839L103.557 31.714L104.111 31.9442C104.86 30.1413 105.233 28.2169 105.233 26.1768H104.633ZM103.557 31.714L103.003 31.4839C102.314 33.1413 101.36 34.5903 100.141 35.8355L100.569 36.2554L100.998 36.6752C102.328 35.3178 103.365 33.7392 104.111 31.9442L103.557 31.714ZM100.569 36.2554L100.136 35.84C98.9444 37.0827 97.5364 38.0602 95.907 38.7731L96.1474 39.3228L96.3879 39.8725C98.1579 39.0981 99.6978 38.0307 101.002 36.6707L100.569 36.2554ZM96.1474 39.3228L95.9111 38.7713C94.3174 39.4543 92.5925 39.7984 90.7297 39.7984V40.3984V40.9984C92.7443 40.9984 94.6312 40.6254 96.3838 39.8743L96.1474 39.3228ZM90.65 36.8131V37.4131C92.7354 37.4131 94.5859 36.9393 96.18 35.9715L95.8686 35.4586L95.5572 34.9458C94.1768 35.7839 92.5483 36.2131 90.65 36.2131V36.8131ZM95.8686 35.4586L96.1826 35.97C97.7872 34.9847 99.0543 33.6457 99.9796 31.9633L99.4539 31.6742L98.9281 31.385C98.1006 32.8896 96.9776 34.0736 95.5546 34.9473L95.8686 35.4586ZM99.4539 31.6742L99.9816 31.9597C100.911 30.2415 101.368 28.2955 101.368 26.1369H100.768H100.168C100.168 28.1214 99.7495 29.8668 98.9261 31.3887L99.4539 31.6742ZM100.768 26.1369H101.368C101.368 24.5303 101.105 23.0467 100.569 21.6934L100.012 21.9143L99.4537 22.1351C99.9272 23.3314 100.168 24.6629 100.168 26.1369H100.768ZM100.012 21.9143L100.571 21.6974C100.04 20.3282 99.2959 19.1321 98.3365 18.1162L97.9003 18.5282L97.464 18.9402C98.3105 19.8364 98.9739 20.8977 99.4522 22.1312L100.012 21.9143ZM97.9003 18.5282L98.3365 18.1162C97.375 17.0982 96.242 16.3194 94.9424 15.7826L94.7133 16.3372L94.4843 16.8917C95.628 17.3641 96.6196 18.046 97.464 18.9402L97.9003 18.5282ZM94.7133 16.3372L94.9526 15.7869C93.6471 15.2193 92.21 14.9404 90.65 14.9404V15.5404V16.1404C92.0645 16.1404 93.3363 16.3927 94.4741 16.8874L94.7133 16.3372ZM90.65 15.5404V14.9404C88.5893 14.9404 86.7412 15.415 85.1241 16.3796L85.4315 16.8949L85.7388 17.4102C87.1493 16.5689 88.7802 16.1404 90.65 16.1404V15.5404ZM85.4315 16.8949L85.1201 16.382C83.5389 17.342 82.2849 18.6692 81.3603 20.3504L81.886 20.6395L82.4117 20.9287C83.2399 19.4229 84.3496 18.2537 85.7428 17.4078L85.4315 16.8949ZM81.886 20.6395L81.3566 20.3572C80.454 22.0495 80.0113 23.9816 80.0113 26.1369H80.6113H81.2113C81.2113 24.1493 81.6183 22.4164 82.4154 20.9219L81.886 20.6395ZM80.6113 26.1369H80.0113C80.0113 27.7402 80.2602 29.2437 80.7638 30.6425L81.3283 30.4393L81.8928 30.236C81.4403 28.979 81.2113 27.6143 81.2113 26.1369H80.6113ZM81.3283 30.4393L80.7689 30.6562C81.2984 32.0217 82.027 33.2156 82.9575 34.2308L83.3998 33.8254L83.8421 33.4199C83.0198 32.5229 82.3674 31.4594 81.8877 30.2223L81.3283 30.4393ZM83.3998 33.8254L82.9694 34.2434C83.9284 35.2306 85.0562 36.0052 86.3475 36.5666L86.5867 36.0164L86.8259 35.4661C85.674 34.9653 84.6771 34.2791 83.8302 33.4073L83.3998 33.8254ZM86.5867 36.0164L86.3518 36.5685C87.6798 37.1336 89.1149 37.4131 90.65 37.4131V36.8131V36.2131C89.2638 36.2131 87.99 35.9614 86.8216 35.4643L86.5867 36.0164Z" fill="#FF6F00" mask="url(#path-3-outside-2_263_299)"/>
</svg>
